<svg width="34" height="34" viewBox="0 0 34 34" fill="none" xmlns="http://www.w3.org/2000/svg">
<path d="M19.1304 1C19.1304 1 20.6838 5.03884 17 5.03884C13.3162 5.03884 14.8696 1 14.8696 1H1V33C1 33 5.21637 33.0222 7.43551 30.7809C9.65465 28.5395 9.65465 26.2538 9.65465 26.2538C9.65465 26.2538 10.9417 33 16.9778 33C23.0139 33 24.2788 26.2316 24.2788 26.2316C24.2788 26.2316 24.301 28.5839 26.4979 30.7809C28.6949 32.9778 33 33 33 33V1H19.1304ZM30.9362 28.5173C30.9362 32.7781 26.9417 30.7365 26.9417 26.4757C26.9417 22.215 22.9029 22.215 22.9029 22.215C22.9029 22.215 18.5978 22.5479 22.9473 17.9764C27.2968 13.405 22.9473 7.41332 22.9473 7.41332C22.9473 7.41332 22.9917 14.9362 17 14.9362C11.0083 14.9362 11.0527 7.43551 11.0527 7.43551C11.0527 7.43551 6.70319 13.4272 11.0527 17.9986C15.4022 22.57 11.0971 22.2372 11.0971 22.2372C11.0971 22.2372 7.05825 22.2372 7.05825 26.4979C7.05825 30.7587 3.0638 32.7781 3.0638 28.5395C3.0638 24.2788 5.08322 22.2594 5.08322 18.0208C5.08322 13.7822 3.0638 11.7184 3.0638 5.37171C3.0638 0.334258 7.10264 5.37171 7.10264 5.37171C7.10264 5.37171 7.1914 3.13037 9.03329 3.13037C10.8752 3.13037 12.2732 6.9473 17 6.9473C21.7268 6.9473 23.1248 3.13037 24.9667 3.13037C26.8086 3.13037 26.8974 5.37171 26.8974 5.37171C26.8974 5.37171 30.9362 0.334258 30.9362 5.37171C30.9362 11.6963 28.9168 13.7822 28.9168 18.0208C28.9168 22.2594 30.9362 24.2788 30.9362 28.5173Z" stroke="#060611" stroke-width="2" stroke-miterlimit="10" stroke-linejoin="round"/>
</svg>
