<svg width="102" height="102" viewBox="0 0 102 102" fill="none" xmlns="http://www.w3.org/2000/svg">
<path d="M57.6574 1C57.6574 1 62.5118 13.6214 51 13.6214C39.4882 13.6214 44.3426 1 44.3426 1H1V101C1 101 14.1761 101.069 21.111 94.0652C28.0458 87.061 28.0458 79.9182 28.0458 79.9182C28.0458 79.9182 32.068 101 50.9307 101C69.7933 101 73.7462 79.8488 73.7462 79.8488C73.7462 79.8488 73.8155 87.1997 80.681 94.0652C87.5465 100.931 101 101 101 101V1H57.6574ZM94.5506 86.9917C94.5506 100.307 82.068 93.9265 82.068 80.6117C82.068 67.2968 69.4466 67.2968 69.4466 67.2968C69.4466 67.2968 55.9931 68.337 69.5853 54.0513C83.1775 39.7656 69.5853 21.0416 69.5853 21.0416C69.5853 21.0416 69.724 44.5506 51 44.5506C32.276 44.5506 32.4147 21.111 32.4147 21.111C32.4147 21.111 18.8225 39.835 32.4147 54.1207C46.0069 68.4064 32.5534 67.3662 32.5534 67.3662C32.5534 67.3662 19.932 67.3662 19.932 80.681C19.932 93.9958 7.44938 100.307 7.44938 87.061C7.44938 73.7462 13.7601 67.4355 13.7601 54.19C13.7601 40.9445 7.44938 34.4951 7.44938 14.6616C7.44938 -1.08044 20.0707 14.6616 20.0707 14.6616C20.0707 14.6616 20.3481 7.65742 26.104 7.65742C31.8599 7.65742 36.2288 19.5853 51 19.5853C65.7711 19.5853 70.1401 7.65742 75.896 7.65742C81.6519 7.65742 81.9293 14.6616 81.9293 14.6616C81.9293 14.6616 94.5506 -1.08044 94.5506 14.6616C94.5506 34.4258 88.2399 40.9445 88.2399 54.19C88.2399 67.4355 94.5506 73.7462 94.5506 86.9917Z" stroke="#13131D" stroke-width="2" stroke-miterlimit="10" stroke-linejoin="round"/>
</svg>
